# xmcd
#
# Track frame offsets:
#	150
#	11220
#	19739
#	34926
#	46789
#	60106
#	72243
#	87137
#	98564
#	115772
#	124623
#	139197
#	152247
#	161564
#	174533
#
# Disc length: 2663 seconds
#
# Revision: 1
# Processed by: cddbd v1.5.1PL0 Copyright (c) Steve Scherf et al.
# Submitted via: EasyCDDAExtractor 7.1.0.1
#
DISCID=b70a650f
DTITLE=Various Artist folklore nuestra musica - los caravajal vol 20
DYEAR=2004
DGENRE=
TTITLE0=la telesita
TTITLE1=santiago manta
TTITLE2=mañanitas loretanas
TTITLE3=la viajerita
TTITLE4=serenata para la tierra de uno
TTITLE5=aquella felicidad
TTITLE6=tu jazmin en flor
TTITLE7=hay leña que arde sin humo
TTITLE8=la hermanita perdida
TTITLE9=el pintao
TTITLE10=gallo calavera
TTITLE11=la carpa de don jaime
TTITLE12=el afusilado
TTITLE13=pescador y guitarrero
TTITLE14=gloria (misa criolla)
EXTD=
EXTT0=
EXTT1=
EXTT2=
EXTT3=
EXTT4=
EXTT5=
EXTT6=
EXTT7=
EXTT8=
EXTT9=
EXTT10=
EXTT11=
EXTT12=
EXTT13=
EXTT14=
PLAYORDER=
